<?xml version="1.0" encoding="UTF-8"?>
<svg xmlns="http://www.w3.org/2000/svg" xmlns:xlink="http://www.w3.org/1999/xlink" width="28px" height="28px" viewBox="0 0 28 28" version="1.1">
<g id="surface1">
<path style=" stroke:none;fill-rule:nonzero;fill:rgb(0%,0%,0%);fill-opacity:1;" d="M 14 2.320312 C 7.566406 2.320312 2.332031 7.5625 2.332031 13.992188 C 2.332031 20.429688 7.566406 25.660156 14 25.660156 C 20.433594 25.660156 25.667969 20.429688 25.667969 13.992188 C 25.667969 7.5625 20.433594 2.320312 14 2.320312 Z M 14 23.320312 C 8.855469 23.320312 4.667969 19.136719 4.667969 13.992188 C 4.667969 8.84375 8.855469 4.660156 14 4.660156 C 19.144531 4.660156 23.332031 8.84375 23.332031 13.992188 C 23.332031 19.140625 19.144531 23.320312 14 23.320312 Z M 14 23.320312 "/>
<path style=" stroke:none;fill-rule:nonzero;fill:rgb(0%,0%,0%);fill-opacity:1;" d="M 15.167969 9.332031 L 12.832031 9.332031 L 12.832031 14 L 9.320312 14 L 13.996094 18.675781 L 18.667969 14 L 15.167969 14 Z M 15.167969 9.332031 "/>
</g>
</svg>
