<?xml version="1.0" encoding="UTF-8"?>
<svg id="Livello_1" data-name="Livello 1" xmlns="http://www.w3.org/2000/svg" viewBox="0 0 1053.91 209.67">
  <defs>
    <style>
      .cls-1 {
        fill: none;
      }

      .cls-1, .cls-2, .cls-3 {
        stroke-width: 0px;
      }

      .cls-2 {
        fill: #1e1e1c;
      }

      .cls-3 {
        fill: #1d1d1b;
      }
    </style>
  </defs>
  <path class="cls-2" d="M966.01,164.4c-38.85,0-62.62-22.53-62.62-65.1h31.83c0,23.56,11.78,35.75,31.21,35.75s31.26-12.81,31.26-35.75h31.78c0,43.82-24.59,65.1-63.45,65.1Z"/>
  <g>
    <path class="cls-2" d="M65.55,164.36c-20.5,0-41.19-7.15-57.43-21.66l17.6-21.08c12.18,10.05,24.94,16.44,40.42,16.44,12.18,0,19.53-4.83,19.53-12.76v-.39c0-7.54-4.64-11.41-27.27-17.21-27.27-6.96-44.86-14.5-44.86-41.38v-.39c0-24.56,19.72-40.8,47.38-40.8,19.72,0,36.55,6.19,50.28,17.21l-15.47,22.43c-11.99-8.32-23.79-13.34-35.19-13.34s-17.4,5.22-17.4,11.8v.39c0,8.9,5.8,11.8,29.2,17.79,27.46,7.15,42.93,17.02,42.93,40.61v.39c0,26.88-20.5,41.96-49.7,41.96Z"/>
    <path class="cls-2" d="M198.8,162.42v-11.22c-7.16,7.93-17.02,13.15-31.33,13.15-19.53,0-35.58-11.21-35.58-31.71v-.39c0-22.63,17.21-33.07,41.77-33.07,10.44,0,17.98,1.74,25.33,4.25v-1.74c0-12.18-7.54-18.95-22.24-18.95-11.22,0-19.14,2.13-28.62,5.61l-7.35-22.43c11.41-5.03,22.63-8.32,40.22-8.32,32.1,0,46.22,16.63,46.22,44.67v60.14h-28.43ZM199.38,120.66c-5.03-2.32-11.6-3.87-18.76-3.87-12.57,0-20.3,5.03-20.3,14.31v.39c0,7.93,6.57,12.57,16.05,12.57,13.73,0,23.01-7.54,23.01-18.18v-5.22Z"/>
    <path class="cls-2" d="M314.25,164.36c-15.66,0-25.33-7.15-32.29-15.47v44.48h-29.39V58.78h29.39v14.89c7.15-9.67,17.02-16.82,32.29-16.82,24.17,0,47.18,18.95,47.18,53.56v.39c0,34.61-22.63,53.56-47.18,53.56ZM332.04,110.41c0-17.21-11.6-28.62-25.33-28.62s-25.14,11.41-25.14,28.62v.39c0,17.21,11.41,28.62,25.14,28.62s25.33-11.22,25.33-28.62v-.39Z"/>
    <path class="cls-2" d="M383.69,47.37v-26.11h30.94v26.11h-30.94ZM384.46,162.42V58.78h29.39v103.65h-29.39Z"/>
    <path class="cls-2" d="M537.81,120.85h-72.13c2.9,13.34,12.18,20.3,25.33,20.3,9.86,0,17.02-3.09,25.14-10.64l16.82,14.89c-9.67,11.99-23.59,19.34-42.35,19.34-31.13,0-54.14-21.85-54.14-53.57v-.39c0-29.59,21.08-53.95,51.24-53.95,34.61,0,50.47,26.88,50.47,56.27v.39c0,2.9-.19,4.64-.39,7.35ZM487.72,80.43c-12.18,0-20.11,8.7-22.43,22.04h44.28c-1.74-13.15-9.48-22.04-21.85-22.04Z"/>
    <path class="cls-2" d="M625.61,162.42v-57.82c0-13.92-6.57-21.08-17.79-21.08s-18.37,7.15-18.37,21.08v57.82h-29.39V58.78h29.39v14.7c6.77-8.7,15.47-16.63,30.36-16.63,22.24,0,35.19,14.7,35.19,38.48v67.1h-29.39Z"/>
    <path class="cls-2" d="M677.05,162.42v-20.69l53.57-59.17h-51.82v-23.79h88.37v20.69l-53.76,59.17h53.76v23.79h-90.11Z"/>
    <path class="cls-2" d="M850.13,162.42v-11.22c-7.16,7.93-17.02,13.15-31.33,13.15-19.53,0-35.58-11.21-35.58-31.71v-.39c0-22.63,17.21-33.07,41.77-33.07,10.44,0,17.98,1.74,25.33,4.25v-1.74c0-12.18-7.54-18.95-22.24-18.95-11.22,0-19.14,2.13-28.62,5.61l-7.35-22.43c11.41-5.03,22.63-8.32,40.22-8.32,32.1,0,46.22,16.63,46.22,44.67v60.14h-28.43ZM850.71,120.66c-5.03-2.32-11.6-3.87-18.76-3.87-12.57,0-20.3,5.03-20.3,14.31v.39c0,7.93,6.57,12.57,16.05,12.57,13.73,0,23.01-7.54,23.01-18.18v-5.22Z"/>
  </g>
  <circle class="cls-3" cx="911.35" cy="68.18" r="7.99"/>
  <circle class="cls-3" cx="927.24" cy="68.18" r="7.99"/>
  <circle class="cls-3" cx="1013.58" cy="68.18" r="7.99"/>
  <circle class="cls-3" cx="927.24" cy="87.61" r="7.99"/>
  <path class="cls-3" d="M919.3,56.7c8.8,0,15.94-7.04,15.94-15.73h-31.87c0,8.69,7.14,15.73,15.94,15.73Z"/>
  <path class="cls-3" d="M903.42,37.35c8.78,0,15.89-7.12,15.89-15.89h-15.89v15.89Z"/>
  <path class="cls-3" d="M919.39,95.56c0-8.78-7.12-15.89-15.89-15.89v15.89h15.89Z"/>
  <path class="cls-3" d="M1013.61,95.56c0-8.78-7.12-15.89-15.89-15.89v15.89h15.89Z"/>
  <path class="cls-3" d="M1029.43,95.56c0-8.78-7.12-15.89-15.89-15.89v15.89h15.89Z"/>
  <path class="cls-3" d="M935.21,37.36c-8.78,0-15.89-7.12-15.89-15.89h15.89v15.89Z"/>
  <rect class="cls-3" x="997.7" y="21.46" width="31.76" height="15.9"/>
  <path class="cls-3" d="M1013.56,56.69h0c-8.77,0-15.87-7.11-15.87-15.87h0s0,0,0,0c8.77,0,15.87,7.11,15.87,15.87h0Z"/>
  <path class="cls-3" d="M1013.56,56.69h0c8.77,0,15.87-7.11,15.87-15.87h0s0,0,0,0c-8.77,0-15.87,7.11-15.87,15.87h0Z"/>
  <path class="cls-3" d="M997.68,60.19v15.98c4.41,0,7.99-3.58,7.99-7.99s-3.58-7.99-7.99-7.99Z"/>
  <path class="cls-3" d="M1029.49,60.19v15.98c-4.41,0-7.99-3.58-7.99-7.99s3.58-7.99,7.99-7.99Z"/>
  <line class="cls-1" x1="903.42" y1="37.35" x2="903.36" y2="40.97"/>
  <line class="cls-1" x1="903.42" y1="37.35" x2="903.36" y2="40.97"/>
</svg>